# xmcd
#
# Track frame offsets:
#	225
#	14212
#	28129
#	47031
#	60138
#	73602
#	87810
#	102853
#	120548
#	132590
#
# Disc length: 2011 seconds
#
# Revision: 1
# Processed by: cddbd v1.5.2PL0 Copyright (c) Steve Scherf et al.
# Submitted via: EasyCDDAExtractor 15.3.0.1
#
DISCID=8607d80a
DTITLE=Aranza - Mirada De Mujer
DYEAR=1998
DGENRE=Latin
TTITLE0=Para Dormir Contigo
TTITLE1=Hablame
TTITLE2=Aun Te Recuerdo
TTITLE3=Escalera Al Cielo
TTITLE4=Dime
TTITLE5=A Traves
TTITLE6=Tuya Soy
TTITLE7=No Me Hace Nada Bien
TTITLE8=Quien
TTITLE9=Suele Pasar Asi
EXTD=
EXTT0=
EXTT1=
EXTT2=
EXTT3=
EXTT4=
EXTT5=
EXTT6=
EXTT7=
EXTT8=
EXTT9=
PLAYORDER=
